<svg width="1406" height="1196" fill="none" xmlns="http://www.w3.org/2000/svg"><path opacity=".162" fill-rule="evenodd" clip-rule="evenodd" d="M929.469 115.032c95.531 17.631 171.711 34.945 256.121 77.408 96.32 48.456 149.2 137.259 166.63 207.003 17.43 69.745 12.18 158.07-44.4 233.187-50.76 67.372-101.69 98.066-187.66 134.806-85.42 36.503-180.461 71.819-277.3 52.975-93.99-18.287-142.146-101.739-220.398-149.818-93.609-57.513-264.351-65.951-282.007-158.856-18.019-94.824 161.789-125.872 211.956-209.766 47.438-79.332-26.123-209.48 66.07-255.188 90.82-45.027 203.861 48.477 310.988 68.249z" fill="#2FC6F6"/><path opacity=".186" fill-rule="evenodd" clip-rule="evenodd" d="M618.335 1087.09c-91.53 34.44-192.641 88.25-282.619 66.45-90.012-21.81-107.998-106.14-144.254-169.86-33.756-59.327-77.448-119.084-58.273-186.079 18.99-66.351 82.957-126.509 159.754-168.481 69.024-37.724 154.443-42.374 236.19-47.918 70.268-4.766 134.356 5.456 199.931 18.337 77.087 15.142 161.741 21.286 214.55 63.079 61.686 48.816 129.646 115.386 98.216 184.443-31.89 70.071-160.589 85.654-242.211 131.915-63.129 35.784-110.989 81.664-181.284 108.114z" fill="#B3E600"/><path opacity=".122" clip-rule="evenodd" d="M366.988 917.124c-71.902 10.646-146.177-11.036-205.168-45.108-57.952-33.472-90.843-86.21-115.943-140.36C20.405 676.707-1.578 618.008 17.59 560.873c19.359-57.701 73.171-102.904 132.218-139.001 58.054-35.489 125.533-62.476 197.697-62.684 70.54-.203 134.207 28.15 190.883 61.567 54.818 32.321 114 70.286 125.175 124.785 10.738 52.365-45.238 96.26-69.663 145.931-21.278 43.271-27.709 89.887-64.082 126.058-44.059 43.815-94.605 89.494-162.83 99.595z" stroke="#55D0E0" stroke-width="3"/></svg>